HIERARCHY
ROOT Hips
{
  OFFSET 196.326 95.9168 97.7182
  CHANNELS 6 Xposition Yposition Zposition Zrotation Xrotation Yrotation
  JOINT LeftUpLeg
  {
    OFFSET 8.64259 1.95398 -2.38835
    CHANNELS 3 Zrotation Xrotation Yrotation
    JOINT LeftLeg
    {
      OFFSET 43.7702 0 0
      CHANNELS 3 Zrotation Xrotation Yrotation
      JOINT LeftFoot
      {
        OFFSET 40.6238 0 0
        CHANNELS 3 Zrotation Xrotation Yrotation
        JOINT LeftToeBase
        {
          OFFSET 12.7242 0 0
          CHANNELS 3 Zrotation Xrotation Yrotation
          End Site
          {
            OFFSET 0 0 0
          }
        }
      }
    }
  }
  JOINT RightUpLeg
  {
    OFFSET -8.2249 1.95398 -2.59336
    CHANNELS 3 Zrotation Xrotation Yrotation
    JOINT RightLeg
    {
      OFFSET 43.5653 0 0
      CHANNELS 3 Zrotation Xrotation Yrotation
      JOINT RightFoot
      {
        OFFSET 40.6238 0 0
        CHANNELS 3 Zrotation Xrotation Yrotation
        JOINT RightToeBase
        {
          OFFSET 12.7242 0 0
          CHANNELS 3 Zrotation Xrotation Yrotation
          End Site
          {
            OFFSET 0 0 0
          }
        }
      }
    }
  }
  JOINT Spine
  {
    OFFSET 0.165834 0.87714 6.61349
    CHANNELS 3 Zrotation Xrotation Yrotation
    JOINT Spine1
    {
      OFFSET 7.38963 1.71661e-005 0
      CHANNELS 3 Zrotation Xrotation Yrotation
      JOINT Spine2
      {
        OFFSET 11.9445 1.14441e-005 0
        CHANNELS 3 Zrotation Xrotation Yrotation
        JOINT Spine3
        {
          OFFSET 14.7254 4.19617e-005 0
          CHANNELS 3 Zrotation Xrotation Yrotation
          JOINT Spine4
          {
            OFFSET 10.9679 0 0
            CHANNELS 3 Zrotation Xrotation Yrotation
            JOINT RightShoulder
            {
              OFFSET 2.46616 -1.6653 3.69651
              CHANNELS 3 Zrotation Xrotation Yrotation
              JOINT RightArm
              {
                OFFSET 13.0012 0 0
                CHANNELS 3 Zrotation Xrotation Yrotation
                JOINT RightForeArm
                {
                  OFFSET 28.7848 1.52588e-005 0
                  CHANNELS 3 Zrotation Xrotation Yrotation
                  JOINT RightHand
                  {
                    OFFSET 26.5688 1.52588e-005 0
                    CHANNELS 3 Zrotation Xrotation Yrotation
                    End Site
                    {
                      OFFSET 0 0 0
                    }
                  }
                }
              }
            }
            JOINT LeftShoulder
            {
              OFFSET 2.38034 -1.29275 -3.75231
              CHANNELS 3 Zrotation Xrotation Yrotation
              JOINT LeftArm
              {
                OFFSET 16.3182 6.10351e-005 0
                CHANNELS 3 Zrotation Xrotation Yrotation
                JOINT LeftForeArm
                {
                  OFFSET 27.0901 0 0
                  CHANNELS 3 Zrotation Xrotation Yrotation
                  JOINT LeftHand
                  {
                    OFFSET 24.5451 1.52588e-005 0
                    CHANNELS 3 Zrotation Xrotation Yrotation
                    End Site
                    {
                      OFFSET 0 0 0
                    }
                  }
                }
              }
            }
            JOINT Neck
            {
              OFFSET 5.0226 -0.0266342 0
              CHANNELS 3 Zrotation Xrotation Yrotation
              JOINT Head
              {
                OFFSET 6.69363 2.86102e-005 0
                CHANNELS 3 Zrotation Xrotation Yrotation
                End Site
                {
                  OFFSET 0 0 0
                }
              }
            }
          }
        }
      }
    }
  }
}
MOTION
Frames:	19
Frame Time:	0.0416667
-290.493 87.6331 -279.578 87.2381 -73.7733 83.2674 174.923 10.3495 55.9759 43.4401 -31.2044 92.5362 -38.2724 -51.8322 -89.0487 -37.7779 -27.3008 -52.4426 147.786 -1.53634 51.6757 -119.293 36.4474 106.89 61.6202 13.1144 9.20577 29.8453 24.465 -159.046 0.598677 8.75969 -89.2761 9.34404 1.51902 1.32249 -2.32661 1.57575 1.25434 -24.8603 1.0514 1.71782 -4.84763 1.0514 1.71781 68.0392 -58.9028 -128.438 -14.2107 2.58151 -53.7225 -10.8877 -10.3682 -62.3324 24.0146 -1.47805 -9.18939 -86.3709 -49.1147 84.036 -40.8137 11.7135 21.346 60.3697 3.39673 -87.7963 -20.1029 -5.06036 26.7289 14.9073 17.314 9.1243 6.57446 14.253 -2.00027 
-287.819 90.165 -276.111 83.5375 -73.7387 79.3287 -161.848 27.3038 90.9718 -84.5105 -48.4807 -22.0452 37.816 -23.1608 -72.6968 1.35992 -4.53112 -61.6789 125.894 5.23085 55.1064 -89.2278 51.3617 86.6466 53.8939 1.51229 2.20135 23.1982 43.2876 -155.371 1.75603 9.37879 -89.0983 8.09287 3.9004 1.5611 -3.57286 3.96532 1.3877 -26.1365 3.25092 2.66188 -6.12382 3.25091 2.66187 79.0017 -50.8681 -117.001 5.58665 7.68914 -26.0869 -40.6195 0.316286 -90.3008 42.335 -7.78218 -16.5265 -99.2709 -45.0402 63.1942 -40.4334 8.34517 24.8135 26.2508 3.31492 -75.9822 5.54235 1.91054 29.9259 18.4793 12.3176 3.89756 7.8442 11.265 3.61154 
-286.629 89.4051 -273.523 71.2845 -71.9694 65.2784 -154.471 25.6106 85.0482 -68.7571 -18.7503 -4.6536 56.896 -10.7681 -25.1052 56.3659 19.6011 -35.7704 95.6003 29.1849 65.0877 -52.5646 35.4973 32.4988 46.1157 -3.03116 -1.73688 -29.158 71.8593 -103.927 2.16135 9.27016 -88.4592 8.26789 4.9915 2.73868 -3.39584 5.10715 2.51599 -25.9605 3.93811 4.11266 -5.94782 3.93812 4.11266 85.2848 -44.5794 -109.804 25.9053 11.1089 -1.45253 -98.0268 27.3088 -88.5 56.9605 -33.7391 -49.4255 -99.9664 -40.3279 60.1524 -43.5605 7.40148 31.9156 3.36986 -2.92033 -71.6647 31.1847 5.53655 13.894 20.8645 9.18742 -2.7946 8.57831 10.8513 8.27475 
-284.041 88.438 -269.414 61.5282 -66.7154 56.0275 -152.808 40.1286 80.1461 -62.6021 14.3212 -6.94465 55.6792 1.31529 13.382 57.4493 30.9364 -0.604663 94.3337 30.3424 62.3381 -55.0004 32.334 40.7106 39.129 -1.10857 -2.6035 -38.3137 63.4489 -86.7597 2.14773 8.49102 -88.2378 9.81423 5.07891 3.08624 -1.84993 5.20975 2.8594 -24.4077 3.91735 4.46998 -4.39506 3.91735 4.46997 86.9757 -41.8603 -107.976 31.6113 9.52488 5.4468 -130.208 26.143 -66.5931 41.0714 -40.341 -74.7564 -96.6477 -37.6736 64.411 -48.148 8.67088 38.7243 -1.64759 -4.19167 -72.3089 31.0571 2.43842 3.83708 19.4528 8.28577 -3.27434 9.07288 10.042 7.37379 
-278.796 87.9569 -263.593 62.4455 -59.4437 61.453 -159.778 52.1715 82.4324 -54.2059 18.4464 -6.74779 54.8659 -1.05042 12.1995 53.9629 28.3368 2.19574 -173.079 1.1581 85.2912 94.1971 77.4759 -120.421 -7.40816 -1.99991 14.9389 -75.3717 -55.1992 32.4985 1.91625 7.91734 -88.7405 10.9994 4.39815 2.08601 -0.665466 4.48564 1.89014 -23.2298 3.56806 3.31206 -3.21713 3.56804 3.31207 87.8594 -39.9282 -107.136 32.2888 5.41863 5.89172 -124.816 29.3125 -69.3105 53.9108 -44.2798 -66.3009 -96.2598 -36.0567 64.3849 -50.889 6.59095 43.0771 0.876754 -3.63178 -74.1608 28.6438 2.09986 3.51234 18.7786 7.30831 -1.86249 7.76589 8.39838 5.9793 
-270.74 90.6974 -255.578 61.9039 -52.6241 65.7297 -168.575 53.5779 85.354 -38.2457 21.6386 -4.90446 52.8309 -1.4297 13.9049 57.3729 30.2449 -2.22162 -175.802 0.676198 92.8512 -27.892 -17.7093 -14.1767 2.3202 10.6967 17.6508 54.5358 6.66346 14.535 1.60033 7.33637 -89.2285 12.1847 3.54595 1.14245 0.518263 3.5928 0.985116 -22.0432 3.03859 2.15605 -2.03051 3.03859 2.15605 88.9097 -38.4541 -105.803 33.0238 -1.12197 7.2192 -72.3317 35.1626 -106.428 81.8075 -25.5637 -17.5188 -96.4933 -35.4493 63.7268 -51.8656 4.31428 45.2776 1.29278 -3.7353 -76.8243 30.2458 2.74969 5.39487 18.2647 6.93254 0.448069 6.5885 7.04323 3.9328 
-263.773 90.558 -248.13 61.9832 -52.4711 69.1946 -168.639 54.1149 87.8167 -35.9849 17.0292 -5.06371 55.3304 -0.563277 11.0265 56.66 31.0088 1.53289 -178.422 7.6477 90.4491 -45.674 -5.34107 -7.76932 23.4897 5.76175 7.92271 7.78806 -2.18278 4.26685 1.70803 7.12972 -89.4972 12.6108 3.6327 0.579385 0.944941 3.65466 0.418721 -21.6242 3.29046 1.64545 -1.61153 3.29044 1.64546 88.842 -38.6537 -105.855 34.2727 -9.2582 9.47144 -23.9241 5.75043 -127.012 10.1569 5.50133 20.9621 -95.3334 -35.281 65.6504 -51.2665 3.16432 43.8973 -0.429019 -4.186 -78.6364 34.2428 2.40045 3.12426 16.8813 6.6066 0.0552017 7.4456 6.88368 3.89513 
-257.158 89.889 -240.444 66.4562 -52.0584 74.1197 -167.1 49.7197 87.5072 -37.7144 16.7653 -5.61803 54.4267 -1.67934 8.93701 56.0234 31.3265 4.03923 -179.852 8.37391 91.6365 -58.4931 0.19217 -5.73728 43.4893 1.31871 1.44079 -24.9073 -5.96831 3.58796 1.59668 7.22362 -89.667 12.4269 3.33091 0.282366 0.760181 3.34012 0.135311 -21.8054 3.09191 1.27132 -1.79271 3.0919 1.27131 88.0485 -41.1015 -106.429 35.5829 -18.9658 13.7359 -25.816 8.13666 -107.198 0.0489576 -0.124089 9.94092 -96.5001 -38.3011 64.9091 -46.5616 1.28774 41.0842 3.3305 -3.44678 -81.0532 33.0822 3.22349 5.97882 15.0468 6.65211 0.383764 7.46568 6.72208 2.78186 
-250.637 89.4324 -232.839 72.9904 -50.7764 78.0201 -166.201 41.4531 85.0101 -41.5877 18.4759 -6.10607 57.224 4.55749 18.632 52.5606 20.4089 -19.8873 177.976 9.73653 90.7802 -69.1035 8.1023 -4.89348 55.9234 -2.64338 -1.68178 -31.1507 -15.9449 17.4624 1.13236 7.50072 -89.3649 11.8623 2.55065 0.99378 0.193591 2.59192 0.880496 -22.3536 2.13407 1.71463 -2.34093 2.13406 1.71461 85.1117 -45.2248 -109.849 35.7807 -21.0043 17.9427 -17.485 3.29533 -89.9421 -11.2818 -0.694167 1.83058 -96.3554 -39.5486 65.6464 -42.0092 0.0737064 36.9894 5.11977 -3.25748 -83.4128 33.2022 3.16706 5.75986 12.1696 6.70399 -1.43987 10.1691 7.23028 2.21929 
-244.155 88.4122 -225.791 75.1639 -50.2344 78.2885 -166.259 35.0415 83.2883 -46.5432 13.1459 -5.3552 63.8088 13.2536 21.4983 55.3013 19.5487 -31.0839 176.584 19.8143 89.6495 -80.7059 14.1624 -4.89292 51.7914 -3.00905 -1.91495 3.35304 -11.873 32.0231 0.799579 7.52775 -89.0648 11.8016 2.0298 1.64953 0.131311 2.10042 1.55859 -22.4026 1.44033 2.1832 -2.39 1.44033 2.1832 83.5374 -48.1672 -111.265 36.2504 -20.1992 21.6019 -14.8464 -0.308552 -76.1413 -14.5332 -0.766881 0.977959 -97.5431 -41.2673 64.4002 -36.5221 -0.850971 31.9672 5.73114 -3.06025 -86.5362 35.061 3.91207 7.39633 9.66397 6.77244 -3.53715 11.8078 7.89484 2.84509 
-238.243 87.4649 -218.999 75.664 -48.918 77.0954 -167.757 28.9245 81.9533 -47.546 14.467 -4.50751 63.2622 16.7791 27.2788 64.7024 27.9923 -24.4273 175.728 33.6453 90.1268 -88.7471 18.0846 -5.09875 48.6832 -3.28127 -2.10306 36.5346 0.622467 27.0105 0.314044 7.60219 -88.8145 11.6516 1.18038 2.23902 -0.0205909 1.27776 2.18492 -22.5413 0.453139 2.4901 -2.52869 0.453112 2.49009 82.0961 -50.0893 -112.747 35.7884 -18.6539 24.2114 -15.602 -7.9712 -66.7539 -20.3273 -1.15527 2.02864 -99.1336 -42.1355 62.238 -31.3961 -2.0192 24.7013 6.68523 -2.64711 -89.2111 37.5086 4.345 7.8279 12.8432 6.47219 -4.58435 8.19945 7.84956 2.96599 
-231.836 87.44 -212.262 76.327 -44.8066 78.383 -171.092 22.0482 82.9171 -45.3744 16.0759 -2.77494 62.2369 17.8122 29.0745 68.6985 33.1459 -19.1663 171.721 44.8315 92.752 -87.6466 17.641 -3.8295 53.8561 -3.32783 -2.03247 40.9764 1.61981 17.3562 -0.330693 7.52002 -88.9399 11.8318 -0.158898 2.13196 0.159113 -0.0649502 2.13688 -22.3634 -0.792163 1.98576 -2.3507 -0.792178 1.98575 80.5074 -52.5782 -114.158 35.271 -18.0217 30.9329 -12.3736 -9.62155 -62.1405 -25.0118 -1.18135 0.937469 -99.9263 -40.2849 60.1807 -28.8122 -3.29982 18.8808 7.7833 -2.70521 -92.8676 38.5125 4.36203 7.53619 12.1011 5.88547 -5.12422 6.78868 7.37164 3.19368 
-224.617 88.3648 -205.135 79.208 -43.3157 81.298 -173.07 12.5115 85.3858 -41.7186 19.3463 -1.44187 59.5462 11.8128 23.2386 74.8358 38.211 -18.6375 171.4 49.6095 92.6918 -77.144 15.0677 -1.88326 57.1912 -2.2539 -1.27483 47.3191 2.39284 12.3838 -0.876454 7.49164 -89.1915 11.899 -1.36202 1.75875 0.22752 -1.28329 1.81697 -22.3077 -1.82757 1.26816 -2.2951 -1.82758 1.26815 80.5459 -52.0226 -114.309 37.5295 -18.0642 39.7878 -12.6244 -9.35688 -64.1196 -23.2904 -0.745635 -0.955278 -97.315 -39.1051 63.896 -29.5303 -2.57076 15.2171 8.49344 -3.59159 -100.732 37.1491 4.22076 7.59233 8.53481 6.51273 -3.72702 7.02418 7.58448 3.32725 
-216.885 89.6964 -197.208 79.938 -45.8066 82.8319 -173.337 3.82589 88.2885 -36.2401 21.4561 -0.649874 52.5265 0.366256 10.5968 77.5691 44.6187 -11.2569 173.88 49.6617 92.6929 -57.9851 14.4696 1.07581 58.5918 -1.05478 -0.486983 46.5323 2.36578 13.5802 -1.00415 7.32656 -89.4836 12.2317 -1.75113 1.22614 0.561262 -1.69547 1.30202 -21.9817 -2.03866 0.643031 -1.96907 -2.03866 0.643026 81.3568 -49.1639 -114.2 40.7944 -17.3355 47.0971 -13.7037 -8.23498 -66.3629 -23.2112 -0.441773 -2.52754 -95.9517 -38.9279 66.068 -29.3233 -2.70385 15.0949 12.0136 -6.13067 -110.027 30.9306 3.34327 7.09965 4.98412 7.59163 -1.55788 7.2081 8.20518 3.58774 
-209.415 90.8259 -188.371 82.2019 -45.8936 85.095 -174.12 -3.42787 90.9903 -31.866 26.5316 0.602666 40.0866 -10.4702 1.9702 63.0393 31.2702 -11.6422 177.265 44.0899 91.2602 -33.1559 13.7788 3.42736 51.4276 1.30984 1.34603 38.7188 0.991555 16.0568 -1.26932 7.28174 -89.6457 12.3217 -2.35432 0.973181 0.652427 -2.30921 1.07588 -21.8995 -2.53792 0.220195 -1.88688 -2.53789 0.220204 82.0075 -48.827 -113.359 41.0683 -17.0102 51.1557 -13.9017 -6.02404 -67.9719 -19.6115 -0.245411 -3.49435 -95.2757 -38.6215 67.071 -29.7781 -0.510324 16.6011 16.1378 -10.6093 -118.035 29.2818 3.25067 7.37675 2.47473 7.37598 -2.4934 6.62723 8.28007 5.14973 
-202.219 91.1536 -179.623 83.395 -45.9533 83.9199 -175.596 -3.01561 89.2676 -40.0418 25.9246 0.993515 40.2627 -10.307 2.77697 36.1687 8.29247 -1.28918 179.811 41.043 89.3578 -18.5973 12.0954 2.83527 45.4112 3.05324 3.01829 33.8 -0.011137 16.697 -1.36957 7.18612 -89.4592 12.5181 -2.46351 1.36471 0.848682 -2.40105 1.47184 -21.7038 -2.7597 0.560797 -1.69119 -2.7597 0.560792 83.9147 -49.897 -110.09 38.965 -16.6745 50.8761 -12.3121 -3.69183 -70.1125 -20.0677 -0.414425 -2.57596 -94.838 -38.0007 67.5687 -31.7131 3.23436 18.0677 18.3639 -13.8071 -120.981 27.7647 3.04954 7.26362 0.859279 6.40204 -4.11557 6.52854 7.67505 6.25776 
-195.164 91.0814 -171.705 85.1659 -44.22 84.308 -176.374 3.08191 89.545 -53.7944 18.7222 1.62306 42.7736 -7.77181 4.05998 39.6427 12.1058 0.250774 179.188 38.8699 89.2323 -19.3425 15.0679 3.12826 44.0447 3.34272 3.33584 27.7886 -1.10961 14.4968 -1.41573 7.21115 -89.5093 12.468 -2.57936 1.27663 0.798879 -2.52067 1.38894 -21.7559 -2.84371 0.441869 -1.74321 -2.84371 0.44188 84.848 -49.7859 -108.723 37.3653 -14.54 48.2466 -15.317 -2.65497 -72.6234 -21.5657 -0.280025 -3.38654 -96.0434 -38.2115 65.634 -33.1123 6.60006 18.2655 16.8354 -13.1381 -117.818 25.7802 2.93389 7.64997 -0.394334 4.96304 -2.99426 6.83695 6.02841 5.84878 
-188.419 90.2211 -164.447 89.6133 -43.78 87.9181 -175.751 10.0807 90.7672 -66.0334 14.1041 1.6478 46.3475 -4.46726 8.16285 46.8483 20.2358 1.16836 175.254 35.232 91.2481 -27.606 8.70839 5.49039 46.9765 2.074 2.17548 18.7757 -3.64272 19.8908 -1.24583 7.53464 -89.6602 11.816 -2.31771 0.923051 0.146784 -2.27484 1.0242 -22.4047 -2.48791 0.183427 -2.39207 -2.48792 0.183406 84.3457 -50.6947 -109.184 33.9893 -12.8461 42.8045 -13.4445 -1.29738 -74.963 -19.7693 -0.468062 -2.22665 -98.2336 -38.9017 62.307 -34.3844 5.87461 20.0808 16.3133 -9.81041 -109.162 23.6722 2.53275 6.8992 -2.1149 3.75883 -1.90416 8.37737 4.61657 4.87934 
-182.137 89.3998 -157.286 94.7521 -43.4566 93.5928 -175.33 17.1773 93.6805 -72.5247 9.19379 1.97381 49.2939 -0.718652 11.089 56.6767 28.2513 -5.6331 173.882 30.5 94.5478 -40.4897 8.11343 5.55724 63.1099 -1.52834 -0.82531 24.5798 -2.45397 20.3102 -0.9854 7.93437 -89.9353 11.0082 -1.9316 0.313163 -0.661374 -1.91596 0.3979 -23.2081 -1.93643 -0.282075 -3.19541 -1.9364 -0.282081 83.5032 -52.1713 -109.944 30.197 -12.495 35.5502 -13.8001 -1.15819 -77.1359 -19.9295 -0.743129 -0.600594 -99.1671 -39.6941 61.1384 -35.7554 4.9864 21.6113 16.9299 -7.89416 -97.8947 19.7559 1.90332 5.89236 -2.65904 2.47242 -2.1349 8.48917 3.36441 4.88437 
